<svg width="22" height="22" viewBox="0 0 22 22" fill="none" xmlns="http://www.w3.org/2000/svg">
<path d="M8.76389 21.9091C8.94458 20.5354 9.10268 19.0606 9.2382 17.4849C9.37372 15.9091 9.48664 14.4142 9.57699 13C8.22182 13.9293 6.93441 14.8384 5.71476 15.7273C4.49511 16.6162 3.32063 17.5051 2.19133 18.394C1.87512 17.7475 1.53633 17.101 1.17495 16.4546C0.858747 15.8081 0.49737 15.2425 0.0908203 14.7576C1.2653 14.1515 2.59788 13.5657 4.08856 13C5.62442 12.394 7.06993 11.7273 8.42509 11C6.97958 10.3536 5.55666 9.74751 4.15632 9.18185C2.75598 8.57579 1.46857 8.01013 0.294087 7.48488C0.700637 6.91922 1.10719 6.33337 1.51374 5.72731C1.92029 5.12125 2.30425 4.43438 2.66563 3.6667C4.69838 5.52529 7.02476 7.36367 9.64475 9.18185C9.64475 7.6869 9.59957 6.15155 9.50923 4.57579C9.46405 3.00003 9.37372 1.50508 9.2382 0.0909424H13.3037C13.123 1.42428 12.9197 2.89902 12.6939 4.51519C12.5132 6.13135 12.3777 7.6667 12.2873 9.12125C12.8746 8.79801 13.5296 8.41418 14.2523 7.96973C14.9751 7.48488 15.6752 7.00003 16.3528 6.51519C17.0304 5.98993 17.6628 5.48488 18.2501 5.00003C18.8825 4.51519 19.4019 4.07074 19.8085 3.6667C20.1699 4.31316 20.5087 4.95963 20.8249 5.6061C21.1863 6.21216 21.5476 6.79801 21.909 7.36367C20.6442 7.92933 19.2664 8.51519 17.7758 9.12125C16.2851 9.72731 14.817 10.3536 13.3715 11C14.7718 11.7273 16.1721 12.4142 17.5725 13.0606C19.018 13.7071 20.3732 14.2728 21.638 14.7576C21.2766 15.2829 20.87 15.8889 20.4183 16.5758C19.9666 17.2223 19.6278 17.8283 19.402 18.394C18.363 17.5051 17.2337 16.6162 16.014 15.7273C14.8396 14.798 13.5747 13.8889 12.2196 13C12.1744 13.5657 12.1518 14.2526 12.1518 15.0606C12.197 15.8687 12.2421 16.697 12.2873 17.5455C12.3777 18.394 12.4454 19.2223 12.4906 20.0303C12.5809 20.798 12.6487 21.4243 12.6939 21.9091H8.76389Z" fill="white"/>
</svg>
