<svg width="36" height="36" viewBox="0 0 36 36" fill="none" xmlns="http://www.w3.org/2000/svg">
<path d="M14.3985 29.6811H17.5761M19.1123 25.5561H8.8373C6.52709 25.5561 5.37198 25.5561 4.48959 25.1066C3.71343 24.7111 3.08238 24.08 2.6869 23.3039C2.2373 22.4215 2.2373 21.2664 2.2373 18.9562V12.9062C2.2373 10.5959 2.2373 9.44083 2.6869 8.55844C3.08238 7.78227 3.71343 7.15123 4.48959 6.75575C5.37198 6.30615 6.52709 6.30615 8.8373 6.30615H23.1373C25.4475 6.30615 26.6026 6.30615 27.485 6.75575C28.2612 7.15123 28.8922 7.78227 29.2877 8.55844M28.1375 26.1499H28.1455M25.0839 29.6937H31.1911C32.0912 29.6937 32.5412 29.6937 32.885 29.522C33.1874 29.371 33.4333 29.13 33.5873 28.8337C33.7625 28.4968 33.7625 28.0557 33.7625 27.1737V14.8887C33.7625 14.0066 33.7625 13.5655 33.5873 13.2286C33.4333 12.9323 33.1874 12.6913 32.885 12.5403C32.5412 12.3687 32.0912 12.3687 31.1911 12.3687H25.0839C24.1838 12.3687 23.7338 12.3687 23.39 12.5403C23.0876 12.6913 22.8418 12.9323 22.6877 13.2286C22.5125 13.5655 22.5125 14.0066 22.5125 14.8887V27.1737C22.5125 28.0557 22.5125 28.4968 22.6877 28.8337C22.8418 29.13 23.0876 29.371 23.39 29.522C23.7338 29.6937 24.1838 29.6937 25.0839 29.6937ZM28.5393 26.1499C28.5393 26.3674 28.3594 26.5437 28.1375 26.5437C27.9156 26.5437 27.7357 26.3674 27.7357 26.1499C27.7357 25.9324 27.9156 25.7562 28.1375 25.7562C28.3594 25.7562 28.5393 25.9324 28.5393 26.1499Z" stroke="#2B2E37" stroke-width="2" stroke-linecap="round" stroke-linejoin="round"/>
</svg>
