<svg width="36" height="36" viewBox="0 0 36 36" fill="none" xmlns="http://www.w3.org/2000/svg">
<path d="M13.5 16.8333L19.1666 22.5M11.9623 31.4623C9.91202 33.5126 6 33 3 33C4.53765 30 2.4874 26.088 4.53765 24.0377C6.5879 21.9874 9.91202 21.9874 11.9623 24.0377C14.0125 26.088 14.0125 29.4121 11.9623 31.4623ZM17.8824 23.8869L31.5881 9.08482C32.7952 7.78108 32.7563 5.7564 31.4999 4.50001C30.2435 3.24363 28.2189 3.2047 26.9151 4.41187L12.113 18.1175C11.3481 18.8258 10.9656 19.1799 10.7426 19.5576C10.2077 20.4632 10.1862 21.5828 10.6859 22.5084C10.8942 22.8943 11.2628 23.2629 11.9999 24C12.737 24.7371 13.1056 25.1057 13.4916 25.3141C14.4171 25.8137 15.5367 25.7922 16.4424 25.2573C16.82 25.0343 17.1742 24.6518 17.8824 23.8869Z" stroke="#2B2E37" stroke-width="2" stroke-linecap="round" stroke-linejoin="round"/>
</svg>
