<svg width="36" height="36" viewBox="0 0 36 36" fill="none" xmlns="http://www.w3.org/2000/svg">
<path d="M22.5 31.5V23.4C22.5 22.5599 22.5 22.1399 22.3365 21.819C22.1927 21.5368 21.9632 21.3073 21.681 21.1635C21.3601 21 20.9401 21 20.1 21H15.9C15.0599 21 14.6399 21 14.319 21.1635C14.0368 21.3073 13.8073 21.5368 13.6635 21.819C13.5 22.1399 13.5 22.5599 13.5 23.4V31.5M4.5 10.5C4.5 12.9853 6.51472 15 9 15C11.4853 15 13.5 12.9853 13.5 10.5C13.5 12.9853 15.5147 15 18 15C20.4853 15 22.5 12.9853 22.5 10.5C22.5 12.9853 24.5147 15 27 15C29.4853 15 31.5 12.9853 31.5 10.5M9.3 31.5H26.7C28.3802 31.5 29.2202 31.5 29.862 31.173C30.4265 30.8854 30.8854 30.4265 31.173 29.862C31.5 29.2202 31.5 28.3802 31.5 26.7V9.3C31.5 7.61984 31.5 6.77976 31.173 6.13803C30.8854 5.57354 30.4265 5.1146 29.862 4.82698C29.2202 4.5 28.3802 4.5 26.7 4.5H9.3C7.61984 4.5 6.77976 4.5 6.13803 4.82698C5.57354 5.1146 5.1146 5.57354 4.82698 6.13803C4.5 6.77976 4.5 7.61984 4.5 9.3V26.7C4.5 28.3802 4.5 29.2202 4.82698 29.862C5.1146 30.4265 5.57354 30.8854 6.13803 31.173C6.77976 31.5 7.61984 31.5 9.3 31.5Z" stroke="#2B2E37" stroke-width="2" stroke-linecap="round" stroke-linejoin="round"/>
</svg>
