<svg width="36" height="36" viewBox="0 0 36 36" fill="none" xmlns="http://www.w3.org/2000/svg">
<path d="M12 21C12 21 14.25 24 18 24C21.75 24 24 21 24 21M22.5 13.5H22.515M13.5 13.5H13.515M33 18C33 26.2843 26.2843 33 18 33C9.71573 33 3 26.2843 3 18C3 9.71573 9.71573 3 18 3C26.2843 3 33 9.71573 33 18ZM23.25 13.5C23.25 13.9142 22.9142 14.25 22.5 14.25C22.0858 14.25 21.75 13.9142 21.75 13.5C21.75 13.0858 22.0858 12.75 22.5 12.75C22.9142 12.75 23.25 13.0858 23.25 13.5ZM14.25 13.5C14.25 13.9142 13.9142 14.25 13.5 14.25C13.0858 14.25 12.75 13.9142 12.75 13.5C12.75 13.0858 13.0858 12.75 13.5 12.75C13.9142 12.75 14.25 13.0858 14.25 13.5Z" stroke="#2B2E37" stroke-width="2" stroke-linecap="round" stroke-linejoin="round"/>
</svg>
