<svg width="36" height="36" viewBox="0 0 36 36" fill="none" xmlns="http://www.w3.org/2000/svg">
<path d="M31.5 14.25V11.7C31.5 9.17976 31.5 7.91965 31.0095 6.95704C30.5781 6.11031 29.8897 5.4219 29.043 4.99047C28.0804 4.5 26.8202 4.5 24.3 4.5H11.7C9.17976 4.5 7.91965 4.5 6.95704 4.99047C6.11031 5.4219 5.4219 6.11031 4.99047 6.95704C4.5 7.91965 4.5 9.17976 4.5 11.7V24.3C4.5 26.8202 4.5 28.0804 4.99047 29.043C5.4219 29.8897 6.11031 30.5781 6.95704 31.0095C7.91965 31.5 9.17976 31.5 11.7 31.5H14.25M26.0793 26.567L23.5319 31.2979C23.1155 32.0712 22.9073 32.4579 22.6535 32.5588C22.4332 32.6464 22.1844 32.6247 21.9826 32.5002C21.7502 32.3568 21.6122 31.94 21.3361 31.1062L17.2506 18.767C17.0088 18.0368 16.888 17.6718 16.9749 17.4286C17.0505 17.2171 17.2171 17.0505 17.4286 16.9749C17.6718 16.888 18.0368 17.0088 18.767 17.2506L31.1061 21.3362C31.9399 21.6122 32.3568 21.7503 32.5002 21.9827C32.6246 22.1845 32.6464 22.4332 32.5587 22.6535C32.4578 22.9073 32.0712 23.1155 31.2979 23.5319L26.567 26.0793C26.4491 26.1428 26.3902 26.1745 26.3386 26.2153C26.2929 26.2514 26.2514 26.2929 26.2153 26.3386C26.1745 26.3902 26.1428 26.4491 26.0793 26.567Z" stroke="#2B2E37" stroke-width="2" stroke-linecap="round" stroke-linejoin="round"/>
</svg>
